<svg fill="none" height="588" width="581" xmlns="http://www.w3.org/2000/svg"><g clip-rule="evenodd" fill-rule="evenodd"><path d="m0 0h581v588h-581z" fill="#d94f00"/><g fill="#fff"><path d="m330.56 114.02h148.94v149.24h-148.94zm-180.06 224.73v14.6h25.67v77.24h17.7v-77.83h23.9v-14.6l-67.27.6zm-13.22 18.1v-14.6c-14.2-6.42-30.53-8.36-47.25 0-27.42 12.26-28.4 72.97-.97 84.84 15.75 7.98 48.6 4.28 51.91-2.73v-48.06h-32.66v12.65h14.38v25.3c-47.25 22.96-56-87.37 14.59-57.4zm109.28 31.32h16.91c14 .59 17.7 27.05-.58 26.85h-16.33zm0-37.16h16.91c14 2.53 8.95 23.35-.58 23.93h-16.33zm-17.5-14.2v93h46.47c23.72-8.56 24.7-45.33 0-49.23 22.75-2.52 23.92-44.36-15.36-44.36zm82.05 26.07v13.81c12.44-3.5 39.47-13.23 36.94 7.4-23.72-1.56-39.86 2.72-42.58 17.5-4.47 31.92 29.75 35.03 44.14 19.27v7.59h16.33v-56.04c-4.08-18.1-31.1-20.43-54.83-9.53zm13.8 36c3.7-4.87 15.56-4.68 23.53-2.34v12.26c-13.02 14-34.02 7.59-23.52-9.93zm74.87-19.46c4.28-4.67 27.03-13.43 30.53 0v49.42h18.27v-52.34c-3.89-21.8-24.7-25.69-49.97-10.9v-8.17h-17.3v71.8h18.27zm106.16-22.77-23.91 32.1 25.28 39.5 21.97-.58-27.8-37.94 25.08-32.5-20.61-.58zm-43.74-23.55h18.08v95.15h-18.09v-95.14z"/><path d="m330.56 114.02h148.94v149.24h-148.94z"/></g></g></svg>